<?xml version="1.0" encoding="UTF-8" standalone="no"?>
<!DOCTYPE svg PUBLIC "-//W3C//DTD SVG 1.1//EN"
 "http://www.w3.org/Graphics/SVG/1.1/DTD/svg11.dtd">
<!-- Generated by graphviz version 2.44.1 (20220725.2034)
 -->
<!-- Title: NodeTree Pages: 1 -->
<svg width="1505pt" height="620pt"
 viewBox="0.00 0.00 1505.20 620.00" xmlns="http://www.w3.org/2000/svg" xmlns:xlink="http://www.w3.org/1999/xlink">
<g id="graph0" class="graph" transform="scale(1 1) rotate(0) translate(4 616)">
<title>NodeTree</title>
<polygon fill="white" stroke="transparent" points="-4,4 -4,-616 1501.2,-616 1501.2,4 -4,4"/>
<!-- start -->
<g id="node1" class="node">
<title>start</title>
<ellipse fill="none" stroke="black" cx="27" cy="-90" rx="27" ry="18"/>
<text text-anchor="middle" x="27" y="-86.3" font-family="Times New Roman,serif" font-size="14.00">start</text>
</g>
<!-- roll_7229840 -->
<g id="node2" class="node">
<title>roll_7229840</title>
<ellipse fill="none" stroke="red" cx="147.84" cy="-90" rx="57.69" ry="18"/>
<text text-anchor="middle" x="147.84" y="-86.3" font-family="Times New Roman,serif" font-size="14.00">roll_7229840</text>
</g>
<!-- start&#45;&gt;roll_7229840 -->
<g id="edge1" class="edge">
<title>start&#45;&gt;roll_7229840</title>
<path fill="none" stroke="black" d="M54.08,-90C61.73,-90 70.46,-90 79.44,-90"/>
<polygon fill="black" stroke="black" points="79.64,-93.5 89.64,-90 79.64,-86.5 79.64,-93.5"/>
</g>
<!-- dice_7229952 -->
<g id="node3" class="node">
<title>dice_7229952</title>
<ellipse fill="none" stroke="green" cx="302.13" cy="-162" rx="60.39" ry="18"/>
<text text-anchor="middle" x="302.13" y="-158.3" font-family="Times New Roman,serif" font-size="14.00">dice_7229952</text>
</g>
<!-- roll_7229840&#45;&gt;dice_7229952 -->
<g id="edge2" class="edge">
<title>roll_7229840&#45;&gt;dice_7229952</title>
<path fill="none" stroke="black" d="M180.4,-104.92C203.42,-115.8 234.84,-130.66 259.85,-142.48"/>
<polygon fill="black" stroke="black" points="258.56,-145.74 269.1,-146.85 261.55,-139.41 258.56,-145.74"/>
</g>
<!-- ellipsis_1_15503200 -->
<g id="node17" class="node">
<title>ellipsis_1_15503200</title>
<ellipse fill="none" stroke="green" cx="302.13" cy="-18" rx="27" ry="18"/>
<text text-anchor="middle" x="302.13" y="-14.3" font-family="Times New Roman,serif" font-size="14.00">...</text>
</g>
<!-- roll_7229840&#45;&gt;ellipsis_1_15503200 -->
<g id="edge16" class="edge">
<title>roll_7229840&#45;&gt;ellipsis_1_15503200</title>
<path fill="none" stroke="black" d="M180.4,-75.08C206.78,-62.61 244.19,-44.92 270.35,-32.55"/>
<polygon fill="black" stroke="black" points="271.9,-35.69 279.44,-28.26 268.9,-29.37 271.9,-35.69"/>
</g>
<!-- reroll_7230064 -->
<g id="node4" class="node">
<title>reroll_7230064</title>
<ellipse fill="none" stroke="blue" cx="463.57" cy="-234" rx="64.99" ry="18"/>
<text text-anchor="middle" x="463.57" y="-230.3" font-family="Times New Roman,serif" font-size="14.00">reroll_7230064</text>
</g>
<!-- dice_7229952&#45;&gt;reroll_7230064 -->
<g id="edge3" class="edge">
<title>dice_7229952&#45;&gt;reroll_7230064</title>
<path fill="none" stroke="black" d="M336.17,-176.92C360.3,-187.81 393.23,-202.69 419.44,-214.52"/>
<polygon fill="black" stroke="black" points="418.2,-217.8 428.76,-218.73 421.08,-211.42 418.2,-217.8"/>
</g>
<!-- ellipsis_2_14961104 -->
<g id="node16" class="node">
<title>ellipsis_2_14961104</title>
<ellipse fill="none" stroke="blue" cx="463.57" cy="-90" rx="27" ry="18"/>
<text text-anchor="middle" x="463.57" y="-86.3" font-family="Times New Roman,serif" font-size="14.00">...</text>
</g>
<!-- dice_7229952&#45;&gt;ellipsis_2_14961104 -->
<g id="edge15" class="edge">
<title>dice_7229952&#45;&gt;ellipsis_2_14961104</title>
<path fill="none" stroke="black" d="M336.17,-147.08C364.24,-134.41 404.23,-116.35 431.67,-103.96"/>
<polygon fill="black" stroke="black" points="433.14,-107.13 440.81,-99.83 430.26,-100.75 433.14,-107.13"/>
</g>
<!-- redice_7230240 -->
<g id="node5" class="node">
<title>redice_7230240</title>
<ellipse fill="none" stroke="purple" cx="632.16" cy="-306" rx="67.69" ry="18"/>
<text text-anchor="middle" x="632.16" y="-302.3" font-family="Times New Roman,serif" font-size="14.00">redice_7230240</text>
</g>
<!-- reroll_7230064&#45;&gt;redice_7230240 -->
<g id="edge4" class="edge">
<title>reroll_7230064&#45;&gt;redice_7230240</title>
<path fill="none" stroke="black" d="M499.5,-249.09C524.76,-260.01 559.1,-274.86 586.38,-286.65"/>
<polygon fill="black" stroke="black" points="585.14,-289.92 595.71,-290.68 587.92,-283.5 585.14,-289.92"/>
</g>
<!-- ellipsis_3_7268496 -->
<g id="node15" class="node">
<title>ellipsis_3_7268496</title>
<ellipse fill="none" stroke="purple" cx="632.16" cy="-162" rx="27" ry="18"/>
<text text-anchor="middle" x="632.16" y="-158.3" font-family="Times New Roman,serif" font-size="14.00">...</text>
</g>
<!-- reroll_7230064&#45;&gt;ellipsis_3_7268496 -->
<g id="edge14" class="edge">
<title>reroll_7230064&#45;&gt;ellipsis_3_7268496</title>
<path fill="none" stroke="black" d="M499.5,-218.91C529.03,-206.14 570.97,-188.02 599.52,-175.67"/>
<polygon fill="black" stroke="black" points="601.23,-178.75 609.03,-171.57 598.46,-172.32 601.23,-178.75"/>
</g>
<!-- roll_7230416 -->
<g id="node6" class="node">
<title>roll_7230416</title>
<ellipse fill="none" stroke="red" cx="793.6" cy="-378" rx="57.69" ry="18"/>
<text text-anchor="middle" x="793.6" y="-374.3" font-family="Times New Roman,serif" font-size="14.00">roll_7230416</text>
</g>
<!-- redice_7230240&#45;&gt;roll_7230416 -->
<g id="edge5" class="edge">
<title>redice_7230240&#45;&gt;roll_7230416</title>
<path fill="none" stroke="black" d="M667.37,-321.45C691.81,-332.49 724.85,-347.4 750.85,-359.15"/>
<polygon fill="black" stroke="black" points="749.53,-362.39 760.09,-363.32 752.41,-356.01 749.53,-362.39"/>
</g>
<!-- ellipsis_4_7246032 -->
<g id="node14" class="node">
<title>ellipsis_4_7246032</title>
<ellipse fill="none" stroke="red" cx="793.6" cy="-234" rx="27" ry="18"/>
<text text-anchor="middle" x="793.6" y="-230.3" font-family="Times New Roman,serif" font-size="14.00">...</text>
</g>
<!-- redice_7230240&#45;&gt;ellipsis_4_7246032 -->
<g id="edge13" class="edge">
<title>redice_7230240&#45;&gt;ellipsis_4_7246032</title>
<path fill="none" stroke="black" d="M667.37,-290.55C695.24,-277.97 734.27,-260.34 761.32,-248.13"/>
<polygon fill="black" stroke="black" points="763.03,-251.2 770.7,-243.89 760.14,-244.82 763.03,-251.2"/>
</g>
<!-- dice_7230592 -->
<g id="node7" class="node">
<title>dice_7230592</title>
<ellipse fill="none" stroke="green" cx="947.89" cy="-450" rx="60.39" ry="18"/>
<text text-anchor="middle" x="947.89" y="-446.3" font-family="Times New Roman,serif" font-size="14.00">dice_7230592</text>
</g>
<!-- roll_7230416&#45;&gt;dice_7230592 -->
<g id="edge6" class="edge">
<title>roll_7230416&#45;&gt;dice_7230592</title>
<path fill="none" stroke="black" d="M826.15,-392.92C849.18,-403.8 880.59,-418.66 905.61,-430.48"/>
<polygon fill="black" stroke="black" points="904.32,-433.74 914.85,-434.85 907.31,-427.41 904.32,-433.74"/>
</g>
<!-- ellipsis_5_14823296 -->
<g id="node13" class="node">
<title>ellipsis_5_14823296</title>
<ellipse fill="none" stroke="green" cx="947.89" cy="-306" rx="27" ry="18"/>
<text text-anchor="middle" x="947.89" y="-302.3" font-family="Times New Roman,serif" font-size="14.00">...</text>
</g>
<!-- roll_7230416&#45;&gt;ellipsis_5_14823296 -->
<g id="edge12" class="edge">
<title>roll_7230416&#45;&gt;ellipsis_5_14823296</title>
<path fill="none" stroke="black" d="M826.15,-363.08C852.54,-350.61 889.94,-332.92 916.11,-320.55"/>
<polygon fill="black" stroke="black" points="917.65,-323.69 925.2,-316.26 914.66,-317.37 917.65,-323.69"/>
</g>
<!-- reroll_7230768 -->
<g id="node8" class="node">
<title>reroll_7230768</title>
<ellipse fill="none" stroke="blue" cx="1109.33" cy="-522" rx="64.99" ry="18"/>
<text text-anchor="middle" x="1109.33" y="-518.3" font-family="Times New Roman,serif" font-size="14.00">reroll_7230768</text>
</g>
<!-- dice_7230592&#45;&gt;reroll_7230768 -->
<g id="edge7" class="edge">
<title>dice_7230592&#45;&gt;reroll_7230768</title>
<path fill="none" stroke="black" d="M981.93,-464.92C1006.05,-475.81 1038.99,-490.69 1065.19,-502.52"/>
<polygon fill="black" stroke="black" points="1063.96,-505.8 1074.51,-506.73 1066.84,-499.42 1063.96,-505.8"/>
</g>
<!-- ellipsis_6_7232176 -->
<g id="node12" class="node">
<title>ellipsis_6_7232176</title>
<ellipse fill="none" stroke="blue" cx="1109.33" cy="-378" rx="27" ry="18"/>
<text text-anchor="middle" x="1109.33" y="-374.3" font-family="Times New Roman,serif" font-size="14.00">...</text>
</g>
<!-- dice_7230592&#45;&gt;ellipsis_6_7232176 -->
<g id="edge11" class="edge">
<title>dice_7230592&#45;&gt;ellipsis_6_7232176</title>
<path fill="none" stroke="black" d="M981.93,-435.08C1009.99,-422.41 1049.98,-404.35 1077.42,-391.96"/>
<polygon fill="black" stroke="black" points="1078.89,-395.13 1086.57,-387.83 1076.01,-388.75 1078.89,-395.13"/>
</g>
<!-- redice_7230944 -->
<g id="node9" class="node">
<title>redice_7230944</title>
<ellipse fill="none" stroke="purple" cx="1277.92" cy="-594" rx="67.69" ry="18"/>
<text text-anchor="middle" x="1277.92" y="-590.3" font-family="Times New Roman,serif" font-size="14.00">redice_7230944</text>
</g>
<!-- reroll_7230768&#45;&gt;redice_7230944 -->
<g id="edge8" class="edge">
<title>reroll_7230768&#45;&gt;redice_7230944</title>
<path fill="none" stroke="black" d="M1145.25,-537.09C1170.51,-548.01 1204.86,-562.86 1232.14,-574.65"/>
<polygon fill="black" stroke="black" points="1230.9,-577.92 1241.47,-578.68 1233.68,-571.5 1230.9,-577.92"/>
</g>
<!-- ellipsis_7_7231296 -->
<g id="node11" class="node">
<title>ellipsis_7_7231296</title>
<ellipse fill="none" stroke="purple" cx="1277.92" cy="-450" rx="27" ry="18"/>
<text text-anchor="middle" x="1277.92" y="-446.3" font-family="Times New Roman,serif" font-size="14.00">...</text>
</g>
<!-- reroll_7230768&#45;&gt;ellipsis_7_7231296 -->
<g id="edge10" class="edge">
<title>reroll_7230768&#45;&gt;ellipsis_7_7231296</title>
<path fill="none" stroke="black" d="M1145.25,-506.91C1174.78,-494.14 1216.72,-476.02 1245.28,-463.67"/>
<polygon fill="black" stroke="black" points="1246.99,-466.75 1254.78,-459.57 1244.21,-460.32 1246.99,-466.75"/>
</g>
<!-- roll_7231120 -->
<g id="node10" class="node">
<title>roll_7231120</title>
<ellipse fill="none" stroke="red" cx="1439.36" cy="-594" rx="57.69" ry="18"/>
<text text-anchor="middle" x="1439.36" y="-590.3" font-family="Times New Roman,serif" font-size="14.00">roll_7231120</text>
</g>
<!-- redice_7230944&#45;&gt;roll_7231120 -->
<g id="edge9" class="edge">
<title>redice_7230944&#45;&gt;roll_7231120</title>
<path fill="none" stroke="black" d="M1345.61,-594C1353.98,-594 1362.55,-594 1370.93,-594"/>
<polygon fill="black" stroke="black" points="1371.04,-597.5 1381.04,-594 1371.04,-590.5 1371.04,-597.5"/>
</g>
</g>
</svg>
