<?xml version="1.0" encoding="UTF-8" standalone="no"?>
<!DOCTYPE svg PUBLIC "-//W3C//DTD SVG 1.1//EN"
 "http://www.w3.org/Graphics/SVG/1.1/DTD/svg11.dtd">
<!-- Generated by graphviz version 2.44.1 (20220725.2034)
 -->
<!-- Title: NodeTree Pages: 1 -->
<svg width="1540pt" height="620pt"
 viewBox="0.00 0.00 1540.30 620.00" xmlns="http://www.w3.org/2000/svg" xmlns:xlink="http://www.w3.org/1999/xlink">
<g id="graph0" class="graph" transform="scale(1 1) rotate(0) translate(4 616)">
<title>NodeTree</title>
<polygon fill="white" stroke="transparent" points="-4,4 -4,-616 1536.3,-616 1536.3,4 -4,4"/>
<!-- start -->
<g id="node1" class="node">
<title>start</title>
<ellipse fill="none" stroke="black" cx="27" cy="-90" rx="27" ry="18"/>
<text text-anchor="middle" x="27" y="-86.3" font-family="Times New Roman,serif" font-size="14.00">start</text>
</g>
<!-- roll_7097616 -->
<g id="node2" class="node">
<title>roll_7097616</title>
<ellipse fill="none" stroke="red" cx="147.84" cy="-90" rx="57.69" ry="18"/>
<text text-anchor="middle" x="147.84" y="-86.3" font-family="Times New Roman,serif" font-size="14.00">roll_7097616</text>
</g>
<!-- start&#45;&gt;roll_7097616 -->
<g id="edge1" class="edge">
<title>start&#45;&gt;roll_7097616</title>
<path fill="none" stroke="black" d="M54.08,-90C61.73,-90 70.46,-90 79.44,-90"/>
<polygon fill="black" stroke="black" points="79.64,-93.5 89.64,-90 79.64,-86.5 79.64,-93.5"/>
</g>
<!-- dice_7097728 -->
<g id="node3" class="node">
<title>dice_7097728</title>
<ellipse fill="none" stroke="green" cx="302.13" cy="-162" rx="60.39" ry="18"/>
<text text-anchor="middle" x="302.13" y="-158.3" font-family="Times New Roman,serif" font-size="14.00">dice_7097728</text>
</g>
<!-- roll_7097616&#45;&gt;dice_7097728 -->
<g id="edge2" class="edge">
<title>roll_7097616&#45;&gt;dice_7097728</title>
<path fill="none" stroke="black" d="M180.4,-104.92C203.42,-115.8 234.84,-130.66 259.85,-142.48"/>
<polygon fill="black" stroke="black" points="258.56,-145.74 269.1,-146.85 261.55,-139.41 258.56,-145.74"/>
</g>
<!-- ellipsis_1_15301488 -->
<g id="node17" class="node">
<title>ellipsis_1_15301488</title>
<ellipse fill="none" stroke="green" cx="302.13" cy="-18" rx="27" ry="18"/>
<text text-anchor="middle" x="302.13" y="-14.3" font-family="Times New Roman,serif" font-size="14.00">...</text>
</g>
<!-- roll_7097616&#45;&gt;ellipsis_1_15301488 -->
<g id="edge16" class="edge">
<title>roll_7097616&#45;&gt;ellipsis_1_15301488</title>
<path fill="none" stroke="black" d="M180.4,-75.08C206.78,-62.61 244.19,-44.92 270.35,-32.55"/>
<polygon fill="black" stroke="black" points="271.9,-35.69 279.44,-28.26 268.9,-29.37 271.9,-35.69"/>
</g>
<!-- reroll_7097840 -->
<g id="node4" class="node">
<title>reroll_7097840</title>
<ellipse fill="none" stroke="blue" cx="463.57" cy="-234" rx="64.99" ry="18"/>
<text text-anchor="middle" x="463.57" y="-230.3" font-family="Times New Roman,serif" font-size="14.00">reroll_7097840</text>
</g>
<!-- dice_7097728&#45;&gt;reroll_7097840 -->
<g id="edge3" class="edge">
<title>dice_7097728&#45;&gt;reroll_7097840</title>
<path fill="none" stroke="black" d="M336.17,-176.92C360.3,-187.81 393.23,-202.69 419.44,-214.52"/>
<polygon fill="black" stroke="black" points="418.2,-217.8 428.76,-218.73 421.08,-211.42 418.2,-217.8"/>
</g>
<!-- ellipsis_2_15057216 -->
<g id="node16" class="node">
<title>ellipsis_2_15057216</title>
<ellipse fill="none" stroke="blue" cx="463.57" cy="-90" rx="27" ry="18"/>
<text text-anchor="middle" x="463.57" y="-86.3" font-family="Times New Roman,serif" font-size="14.00">...</text>
</g>
<!-- dice_7097728&#45;&gt;ellipsis_2_15057216 -->
<g id="edge15" class="edge">
<title>dice_7097728&#45;&gt;ellipsis_2_15057216</title>
<path fill="none" stroke="black" d="M336.17,-147.08C364.24,-134.41 404.23,-116.35 431.67,-103.96"/>
<polygon fill="black" stroke="black" points="433.14,-107.13 440.81,-99.83 430.26,-100.75 433.14,-107.13"/>
</g>
<!-- redice_7098016 -->
<g id="node5" class="node">
<title>redice_7098016</title>
<ellipse fill="none" stroke="purple" cx="632.16" cy="-306" rx="67.69" ry="18"/>
<text text-anchor="middle" x="632.16" y="-302.3" font-family="Times New Roman,serif" font-size="14.00">redice_7098016</text>
</g>
<!-- reroll_7097840&#45;&gt;redice_7098016 -->
<g id="edge4" class="edge">
<title>reroll_7097840&#45;&gt;redice_7098016</title>
<path fill="none" stroke="black" d="M499.5,-249.09C524.76,-260.01 559.1,-274.86 586.38,-286.65"/>
<polygon fill="black" stroke="black" points="585.14,-289.92 595.71,-290.68 587.92,-283.5 585.14,-289.92"/>
</g>
<!-- ellipsis_3_7118224 -->
<g id="node15" class="node">
<title>ellipsis_3_7118224</title>
<ellipse fill="none" stroke="purple" cx="632.16" cy="-162" rx="27" ry="18"/>
<text text-anchor="middle" x="632.16" y="-158.3" font-family="Times New Roman,serif" font-size="14.00">...</text>
</g>
<!-- reroll_7097840&#45;&gt;ellipsis_3_7118224 -->
<g id="edge14" class="edge">
<title>reroll_7097840&#45;&gt;ellipsis_3_7118224</title>
<path fill="none" stroke="black" d="M499.5,-218.91C529.03,-206.14 570.97,-188.02 599.52,-175.67"/>
<polygon fill="black" stroke="black" points="601.23,-178.75 609.03,-171.57 598.46,-172.32 601.23,-178.75"/>
</g>
<!-- roll_7098192 -->
<g id="node6" class="node">
<title>roll_7098192</title>
<ellipse fill="none" stroke="red" cx="793.6" cy="-378" rx="57.69" ry="18"/>
<text text-anchor="middle" x="793.6" y="-374.3" font-family="Times New Roman,serif" font-size="14.00">roll_7098192</text>
</g>
<!-- redice_7098016&#45;&gt;roll_7098192 -->
<g id="edge5" class="edge">
<title>redice_7098016&#45;&gt;roll_7098192</title>
<path fill="none" stroke="black" d="M667.37,-321.45C691.81,-332.49 724.85,-347.4 750.85,-359.15"/>
<polygon fill="black" stroke="black" points="749.53,-362.39 760.09,-363.32 752.41,-356.01 749.53,-362.39"/>
</g>
<!-- ellipsis_4_7104768 -->
<g id="node14" class="node">
<title>ellipsis_4_7104768</title>
<ellipse fill="none" stroke="red" cx="793.6" cy="-234" rx="27" ry="18"/>
<text text-anchor="middle" x="793.6" y="-230.3" font-family="Times New Roman,serif" font-size="14.00">...</text>
</g>
<!-- redice_7098016&#45;&gt;ellipsis_4_7104768 -->
<g id="edge13" class="edge">
<title>redice_7098016&#45;&gt;ellipsis_4_7104768</title>
<path fill="none" stroke="black" d="M667.37,-290.55C695.24,-277.97 734.27,-260.34 761.32,-248.13"/>
<polygon fill="black" stroke="black" points="763.03,-251.2 770.7,-243.89 760.14,-244.82 763.03,-251.2"/>
</g>
<!-- dice_15017200 -->
<g id="node7" class="node">
<title>dice_15017200</title>
<ellipse fill="none" stroke="green" cx="952.44" cy="-450" rx="64.99" ry="18"/>
<text text-anchor="middle" x="952.44" y="-446.3" font-family="Times New Roman,serif" font-size="14.00">dice_15017200</text>
</g>
<!-- roll_7098192&#45;&gt;dice_15017200 -->
<g id="edge6" class="edge">
<title>roll_7098192&#45;&gt;dice_15017200</title>
<path fill="none" stroke="black" d="M827.1,-392.92C850.75,-403.78 883.01,-418.59 908.74,-430.4"/>
<polygon fill="black" stroke="black" points="907.35,-433.61 917.9,-434.6 910.27,-427.25 907.35,-433.61"/>
</g>
<!-- ellipsis_5_15021680 -->
<g id="node13" class="node">
<title>ellipsis_5_15021680</title>
<ellipse fill="none" stroke="green" cx="952.44" cy="-306" rx="27" ry="18"/>
<text text-anchor="middle" x="952.44" y="-302.3" font-family="Times New Roman,serif" font-size="14.00">...</text>
</g>
<!-- roll_7098192&#45;&gt;ellipsis_5_15021680 -->
<g id="edge12" class="edge">
<title>roll_7098192&#45;&gt;ellipsis_5_15021680</title>
<path fill="none" stroke="black" d="M827.1,-363.08C854.43,-350.54 893.25,-332.71 920.21,-320.34"/>
<polygon fill="black" stroke="black" points="921.94,-323.39 929.57,-316.04 919.02,-317.03 921.94,-323.39"/>
</g>
<!-- reroll_15017376 -->
<g id="node8" class="node">
<title>reroll_15017376</title>
<ellipse fill="none" stroke="blue" cx="1122.98" cy="-522" rx="69.59" ry="18"/>
<text text-anchor="middle" x="1122.98" y="-518.3" font-family="Times New Roman,serif" font-size="14.00">reroll_15017376</text>
</g>
<!-- dice_15017200&#45;&gt;reroll_15017376 -->
<g id="edge7" class="edge">
<title>dice_15017200&#45;&gt;reroll_15017376</title>
<path fill="none" stroke="black" d="M988.77,-465.09C1014.33,-476.01 1049.08,-490.86 1076.68,-502.65"/>
<polygon fill="black" stroke="black" points="1075.54,-505.97 1086.11,-506.68 1078.29,-499.53 1075.54,-505.97"/>
</g>
<!-- ellipsis_6_15018496 -->
<g id="node12" class="node">
<title>ellipsis_6_15018496</title>
<ellipse fill="none" stroke="blue" cx="1122.98" cy="-378" rx="27" ry="18"/>
<text text-anchor="middle" x="1122.98" y="-374.3" font-family="Times New Roman,serif" font-size="14.00">...</text>
</g>
<!-- dice_15017200&#45;&gt;ellipsis_6_15018496 -->
<g id="edge11" class="edge">
<title>dice_15017200&#45;&gt;ellipsis_6_15018496</title>
<path fill="none" stroke="black" d="M988.77,-434.91C1018.78,-422.09 1061.45,-403.86 1090.35,-391.51"/>
<polygon fill="black" stroke="black" points="1091.76,-394.71 1099.58,-387.57 1089.01,-388.28 1091.76,-394.71"/>
</g>
<!-- redice_15017552 -->
<g id="node9" class="node">
<title>redice_15017552</title>
<ellipse fill="none" stroke="purple" cx="1300.01" cy="-594" rx="71.49" ry="18"/>
<text text-anchor="middle" x="1300.01" y="-590.3" font-family="Times New Roman,serif" font-size="14.00">redice_15017552</text>
</g>
<!-- reroll_15017376&#45;&gt;redice_15017552 -->
<g id="edge8" class="edge">
<title>reroll_15017376&#45;&gt;redice_15017552</title>
<path fill="none" stroke="black" d="M1161.1,-537.27C1187.79,-548.25 1223.96,-563.13 1252.56,-574.89"/>
<polygon fill="black" stroke="black" points="1251.37,-578.19 1261.95,-578.75 1254.03,-571.71 1251.37,-578.19"/>
</g>
<!-- ellipsis_7_15017904 -->
<g id="node11" class="node">
<title>ellipsis_7_15017904</title>
<ellipse fill="none" stroke="purple" cx="1300.01" cy="-450" rx="27" ry="18"/>
<text text-anchor="middle" x="1300.01" y="-446.3" font-family="Times New Roman,serif" font-size="14.00">...</text>
</g>
<!-- reroll_15017376&#45;&gt;ellipsis_7_15017904 -->
<g id="edge10" class="edge">
<title>reroll_15017376&#45;&gt;ellipsis_7_15017904</title>
<path fill="none" stroke="black" d="M1161.1,-506.73C1192.56,-493.79 1237.22,-475.42 1267.1,-463.13"/>
<polygon fill="black" stroke="black" points="1268.71,-466.25 1276.63,-459.21 1266.05,-459.78 1268.71,-466.25"/>
</g>
<!-- roll_15017728 -->
<g id="node10" class="node">
<title>roll_15017728</title>
<ellipse fill="none" stroke="red" cx="1469.9" cy="-594" rx="62.29" ry="18"/>
<text text-anchor="middle" x="1469.9" y="-590.3" font-family="Times New Roman,serif" font-size="14.00">roll_15017728</text>
</g>
<!-- redice_15017552&#45;&gt;roll_15017728 -->
<g id="edge9" class="edge">
<title>redice_15017552&#45;&gt;roll_15017728</title>
<path fill="none" stroke="black" d="M1371.73,-594C1380.14,-594 1388.73,-594 1397.15,-594"/>
<polygon fill="black" stroke="black" points="1397.32,-597.5 1407.32,-594 1397.32,-590.5 1397.32,-597.5"/>
</g>
</g>
</svg>
