<?xml version="1.0" encoding="UTF-8" standalone="no"?>
<!DOCTYPE svg PUBLIC "-//W3C//DTD SVG 1.1//EN"
 "http://www.w3.org/Graphics/SVG/1.1/DTD/svg11.dtd">
<!-- Generated by graphviz version 2.44.1 (20220725.2034)
 -->
<!-- Title: NodeTree Pages: 1 -->
<svg width="1584pt" height="620pt"
 viewBox="0.00 0.00 1584.49 620.00" xmlns="http://www.w3.org/2000/svg" xmlns:xlink="http://www.w3.org/1999/xlink">
<g id="graph0" class="graph" transform="scale(1 1) rotate(0) translate(4 616)">
<title>NodeTree</title>
<polygon fill="white" stroke="transparent" points="-4,4 -4,-616 1580.49,-616 1580.49,4 -4,4"/>
<!-- start -->
<g id="node1" class="node">
<title>start</title>
<ellipse fill="none" stroke="black" cx="27" cy="-90" rx="27" ry="18"/>
<text text-anchor="middle" x="27" y="-86.3" font-family="Times New Roman,serif" font-size="14.00">start</text>
</g>
<!-- roll_14896320 -->
<g id="node2" class="node">
<title>roll_14896320</title>
<ellipse fill="none" stroke="red" cx="152.39" cy="-90" rx="62.29" ry="18"/>
<text text-anchor="middle" x="152.39" y="-86.3" font-family="Times New Roman,serif" font-size="14.00">roll_14896320</text>
</g>
<!-- start&#45;&gt;roll_14896320 -->
<g id="edge1" class="edge">
<title>start&#45;&gt;roll_14896320</title>
<path fill="none" stroke="black" d="M54.17,-90C61.91,-90 70.78,-90 79.95,-90"/>
<polygon fill="black" stroke="black" points="79.97,-93.5 89.97,-90 79.97,-86.5 79.97,-93.5"/>
</g>
<!-- dice_14896432 -->
<g id="node3" class="node">
<title>dice_14896432</title>
<ellipse fill="none" stroke="green" cx="315.78" cy="-162" rx="64.99" ry="18"/>
<text text-anchor="middle" x="315.78" y="-158.3" font-family="Times New Roman,serif" font-size="14.00">dice_14896432</text>
</g>
<!-- roll_14896320&#45;&gt;dice_14896432 -->
<g id="edge2" class="edge">
<title>roll_14896320&#45;&gt;dice_14896432</title>
<path fill="none" stroke="black" d="M187.23,-105.09C211.68,-116 244.91,-130.83 271.32,-142.61"/>
<polygon fill="black" stroke="black" points="270.16,-145.92 280.72,-146.8 273.01,-139.53 270.16,-145.92"/>
</g>
<!-- ellipsis_1_13900128 -->
<g id="node17" class="node">
<title>ellipsis_1_13900128</title>
<ellipse fill="none" stroke="green" cx="315.78" cy="-18" rx="27" ry="18"/>
<text text-anchor="middle" x="315.78" y="-14.3" font-family="Times New Roman,serif" font-size="14.00">...</text>
</g>
<!-- roll_14896320&#45;&gt;ellipsis_1_13900128 -->
<g id="edge16" class="edge">
<title>roll_14896320&#45;&gt;ellipsis_1_13900128</title>
<path fill="none" stroke="black" d="M187.23,-74.91C215.67,-62.22 256,-44.23 283.65,-31.89"/>
<polygon fill="black" stroke="black" points="285.16,-35.05 292.87,-27.78 282.31,-28.66 285.16,-35.05"/>
</g>
<!-- reroll_14896544 -->
<g id="node4" class="node">
<title>reroll_14896544</title>
<ellipse fill="none" stroke="blue" cx="486.32" cy="-234" rx="69.59" ry="18"/>
<text text-anchor="middle" x="486.32" y="-230.3" font-family="Times New Roman,serif" font-size="14.00">reroll_14896544</text>
</g>
<!-- dice_14896432&#45;&gt;reroll_14896544 -->
<g id="edge3" class="edge">
<title>dice_14896432&#45;&gt;reroll_14896544</title>
<path fill="none" stroke="black" d="M352.11,-177.09C377.67,-188.01 412.42,-202.86 440.02,-214.65"/>
<polygon fill="black" stroke="black" points="438.89,-217.97 449.46,-218.68 441.64,-211.53 438.89,-217.97"/>
</g>
<!-- ellipsis_2_13576256 -->
<g id="node16" class="node">
<title>ellipsis_2_13576256</title>
<ellipse fill="none" stroke="blue" cx="486.32" cy="-90" rx="27" ry="18"/>
<text text-anchor="middle" x="486.32" y="-86.3" font-family="Times New Roman,serif" font-size="14.00">...</text>
</g>
<!-- dice_14896432&#45;&gt;ellipsis_2_13576256 -->
<g id="edge15" class="edge">
<title>dice_14896432&#45;&gt;ellipsis_2_13576256</title>
<path fill="none" stroke="black" d="M352.11,-146.91C382.12,-134.09 424.79,-115.86 453.69,-103.51"/>
<polygon fill="black" stroke="black" points="455.1,-106.71 462.93,-99.57 452.35,-100.28 455.1,-106.71"/>
</g>
<!-- redice_14896720 -->
<g id="node5" class="node">
<title>redice_14896720</title>
<ellipse fill="none" stroke="purple" cx="663.36" cy="-306" rx="71.49" ry="18"/>
<text text-anchor="middle" x="663.36" y="-302.3" font-family="Times New Roman,serif" font-size="14.00">redice_14896720</text>
</g>
<!-- reroll_14896544&#45;&gt;redice_14896720 -->
<g id="edge4" class="edge">
<title>reroll_14896544&#45;&gt;redice_14896720</title>
<path fill="none" stroke="black" d="M524.44,-249.27C551.13,-260.25 587.3,-275.13 615.91,-286.89"/>
<polygon fill="black" stroke="black" points="614.71,-290.19 625.29,-290.75 617.37,-283.71 614.71,-290.19"/>
</g>
<!-- ellipsis_3_14925728 -->
<g id="node15" class="node">
<title>ellipsis_3_14925728</title>
<ellipse fill="none" stroke="purple" cx="663.36" cy="-162" rx="27" ry="18"/>
<text text-anchor="middle" x="663.36" y="-158.3" font-family="Times New Roman,serif" font-size="14.00">...</text>
</g>
<!-- reroll_14896544&#45;&gt;ellipsis_3_14925728 -->
<g id="edge14" class="edge">
<title>reroll_14896544&#45;&gt;ellipsis_3_14925728</title>
<path fill="none" stroke="black" d="M524.44,-218.73C555.91,-205.79 600.56,-187.42 630.44,-175.13"/>
<polygon fill="black" stroke="black" points="632.06,-178.25 639.97,-171.21 629.39,-171.78 632.06,-178.25"/>
</g>
<!-- roll_14896896 -->
<g id="node6" class="node">
<title>roll_14896896</title>
<ellipse fill="none" stroke="red" cx="833.25" cy="-378" rx="62.29" ry="18"/>
<text text-anchor="middle" x="833.25" y="-374.3" font-family="Times New Roman,serif" font-size="14.00">roll_14896896</text>
</g>
<!-- redice_14896720&#45;&gt;roll_14896896 -->
<g id="edge5" class="edge">
<title>redice_14896720&#45;&gt;roll_14896896</title>
<path fill="none" stroke="black" d="M700.37,-321.45C726.15,-332.5 760.98,-347.44 788.37,-359.18"/>
<polygon fill="black" stroke="black" points="787.15,-362.47 797.73,-363.2 789.91,-356.04 787.15,-362.47"/>
</g>
<!-- ellipsis_4_14907872 -->
<g id="node14" class="node">
<title>ellipsis_4_14907872</title>
<ellipse fill="none" stroke="red" cx="833.25" cy="-234" rx="27" ry="18"/>
<text text-anchor="middle" x="833.25" y="-230.3" font-family="Times New Roman,serif" font-size="14.00">...</text>
</g>
<!-- redice_14896720&#45;&gt;ellipsis_4_14907872 -->
<g id="edge13" class="edge">
<title>redice_14896720&#45;&gt;ellipsis_4_14907872</title>
<path fill="none" stroke="black" d="M700.37,-290.55C730.2,-277.77 772.15,-259.77 800.68,-247.54"/>
<polygon fill="black" stroke="black" points="802.35,-250.63 810.16,-243.47 799.59,-244.2 802.35,-250.63"/>
</g>
<!-- dice_13509808 -->
<g id="node7" class="node">
<title>dice_13509808</title>
<ellipse fill="none" stroke="green" cx="996.64" cy="-450" rx="64.99" ry="18"/>
<text text-anchor="middle" x="996.64" y="-446.3" font-family="Times New Roman,serif" font-size="14.00">dice_13509808</text>
</g>
<!-- roll_14896896&#45;&gt;dice_13509808 -->
<g id="edge6" class="edge">
<title>roll_14896896&#45;&gt;dice_13509808</title>
<path fill="none" stroke="black" d="M868.08,-393.09C892.53,-404 925.76,-418.83 952.18,-430.61"/>
<polygon fill="black" stroke="black" points="951.01,-433.92 961.57,-434.8 953.86,-427.53 951.01,-433.92"/>
</g>
<!-- ellipsis_5_13514288 -->
<g id="node13" class="node">
<title>ellipsis_5_13514288</title>
<ellipse fill="none" stroke="green" cx="996.64" cy="-306" rx="27" ry="18"/>
<text text-anchor="middle" x="996.64" y="-302.3" font-family="Times New Roman,serif" font-size="14.00">...</text>
</g>
<!-- roll_14896896&#45;&gt;ellipsis_5_13514288 -->
<g id="edge12" class="edge">
<title>roll_14896896&#45;&gt;ellipsis_5_13514288</title>
<path fill="none" stroke="black" d="M868.08,-362.91C896.52,-350.22 936.85,-332.23 964.51,-319.89"/>
<polygon fill="black" stroke="black" points="966.01,-323.05 973.72,-315.78 963.16,-316.66 966.01,-323.05"/>
</g>
<!-- reroll_13509984 -->
<g id="node8" class="node">
<title>reroll_13509984</title>
<ellipse fill="none" stroke="blue" cx="1167.17" cy="-522" rx="69.59" ry="18"/>
<text text-anchor="middle" x="1167.17" y="-518.3" font-family="Times New Roman,serif" font-size="14.00">reroll_13509984</text>
</g>
<!-- dice_13509808&#45;&gt;reroll_13509984 -->
<g id="edge7" class="edge">
<title>dice_13509808&#45;&gt;reroll_13509984</title>
<path fill="none" stroke="black" d="M1032.97,-465.09C1058.52,-476.01 1093.27,-490.86 1120.87,-502.65"/>
<polygon fill="black" stroke="black" points="1119.74,-505.97 1130.31,-506.68 1122.49,-499.53 1119.74,-505.97"/>
</g>
<!-- ellipsis_6_13511104 -->
<g id="node12" class="node">
<title>ellipsis_6_13511104</title>
<ellipse fill="none" stroke="blue" cx="1167.17" cy="-378" rx="27" ry="18"/>
<text text-anchor="middle" x="1167.17" y="-374.3" font-family="Times New Roman,serif" font-size="14.00">...</text>
</g>
<!-- dice_13509808&#45;&gt;ellipsis_6_13511104 -->
<g id="edge11" class="edge">
<title>dice_13509808&#45;&gt;ellipsis_6_13511104</title>
<path fill="none" stroke="black" d="M1032.97,-434.91C1062.97,-422.09 1105.65,-403.86 1134.54,-391.51"/>
<polygon fill="black" stroke="black" points="1135.96,-394.71 1143.78,-387.57 1133.21,-388.28 1135.96,-394.71"/>
</g>
<!-- redice_13510160 -->
<g id="node9" class="node">
<title>redice_13510160</title>
<ellipse fill="none" stroke="purple" cx="1344.21" cy="-594" rx="71.49" ry="18"/>
<text text-anchor="middle" x="1344.21" y="-590.3" font-family="Times New Roman,serif" font-size="14.00">redice_13510160</text>
</g>
<!-- reroll_13509984&#45;&gt;redice_13510160 -->
<g id="edge8" class="edge">
<title>reroll_13509984&#45;&gt;redice_13510160</title>
<path fill="none" stroke="black" d="M1205.29,-537.27C1231.98,-548.25 1268.15,-563.13 1296.76,-574.89"/>
<polygon fill="black" stroke="black" points="1295.56,-578.19 1306.14,-578.75 1298.23,-571.71 1295.56,-578.19"/>
</g>
<!-- ellipsis_7_13510512 -->
<g id="node11" class="node">
<title>ellipsis_7_13510512</title>
<ellipse fill="none" stroke="purple" cx="1344.21" cy="-450" rx="27" ry="18"/>
<text text-anchor="middle" x="1344.21" y="-446.3" font-family="Times New Roman,serif" font-size="14.00">...</text>
</g>
<!-- reroll_13509984&#45;&gt;ellipsis_7_13510512 -->
<g id="edge10" class="edge">
<title>reroll_13509984&#45;&gt;ellipsis_7_13510512</title>
<path fill="none" stroke="black" d="M1205.29,-506.73C1236.76,-493.79 1281.41,-475.42 1311.3,-463.13"/>
<polygon fill="black" stroke="black" points="1312.91,-466.25 1320.83,-459.21 1310.25,-459.78 1312.91,-466.25"/>
</g>
<!-- roll_13510336 -->
<g id="node10" class="node">
<title>roll_13510336</title>
<ellipse fill="none" stroke="red" cx="1514.1" cy="-594" rx="62.29" ry="18"/>
<text text-anchor="middle" x="1514.1" y="-590.3" font-family="Times New Roman,serif" font-size="14.00">roll_13510336</text>
</g>
<!-- redice_13510160&#45;&gt;roll_13510336 -->
<g id="edge9" class="edge">
<title>redice_13510160&#45;&gt;roll_13510336</title>
<path fill="none" stroke="black" d="M1415.92,-594C1424.33,-594 1432.93,-594 1441.35,-594"/>
<polygon fill="black" stroke="black" points="1441.52,-597.5 1451.52,-594 1441.52,-590.5 1441.52,-597.5"/>
</g>
</g>
</svg>
